<svg width="25" height="25" viewBox="0 0 25 25" fill="none" xmlns="http://www.w3.org/2000/svg">
<g clip-path="url(#clip0_54_140)">
<path d="M18.2292 8.33334C18.2292 8.33334 19.7917 9.89584 19.7917 12.5C19.7917 15.1042 18.2292 16.6667 18.2292 16.6667M21.3542 5.20834C21.3542 5.20834 23.9584 7.81251 23.9584 12.5C23.9584 17.1875 21.3542 19.7917 21.3542 19.7917M6.77085 8.33334C6.77085 8.33334 5.20835 9.89584 5.20835 12.5C5.20835 15.1042 6.77085 16.6667 6.77085 16.6667M3.64585 5.20834C3.64585 5.20834 1.04169 7.81251 1.04169 12.5C1.04169 17.1875 3.64585 19.7917 3.64585 19.7917" stroke="#FBFFF1" stroke-width="1.5625" stroke-linecap="round" stroke-linejoin="round"/>
<path d="M12.5 13.5417C12.7763 13.5417 13.0413 13.4319 13.2366 13.2366C13.432 13.0412 13.5417 12.7763 13.5417 12.5C13.5417 12.2237 13.432 11.9588 13.2366 11.7634C13.0413 11.5681 12.7763 11.4583 12.5 11.4583C12.2238 11.4583 11.9588 11.5681 11.7635 11.7634C11.5681 11.9588 11.4584 12.2237 11.4584 12.5C11.4584 12.7763 11.5681 13.0412 11.7635 13.2366C11.9588 13.4319 12.2238 13.5417 12.5 13.5417Z" fill="#FBFFF1" stroke="#FBFFF1" stroke-width="1.5625" stroke-linecap="round" stroke-linejoin="round"/>
</g>
<defs>
<clipPath id="clip0_54_140">
<rect width="25" height="25" fill="white"/>
</clipPath>
</defs>
</svg>
