<svg width="24" height="24" viewBox="0 0 24 24" fill="none" xmlns="http://www.w3.org/2000/svg">
<path d="M20.2819 11.5896V15.9358H2.89744V4.34611H7.96791V2.8974H2.89744C2.51322 2.8974 2.14473 3.05003 1.87305 3.32172C1.60136 3.5934 1.44873 3.96188 1.44873 4.34611V15.9358C1.44873 16.32 1.60136 16.6885 1.87305 16.9601C2.14473 17.2318 2.51322 17.3845 2.89744 17.3845H8.69226V20.2819H5.79485V21.7306H17.3845V20.2819H14.4871V17.3845H20.2819C20.6661 17.3845 21.0346 17.2318 21.3063 16.9601C21.578 16.6885 21.7306 16.32 21.7306 15.9358V11.5896H20.2819ZM13.0384 20.2819H10.141V17.3845H13.0384V20.2819Z" fill="#FBFFF1"/>
<path d="M13.0384 13.0384H13.0311C12.875 13.0368 12.7237 12.9848 12.5995 12.8901C12.4754 12.7955 12.3852 12.6633 12.3423 12.5133L11.0435 7.96794H7.9679V6.51923H11.5897C11.7471 6.51914 11.9003 6.57036 12.026 6.66511C12.1518 6.75987 12.2432 6.89302 12.2865 7.04439L13.0644 9.76795L15.244 2.68378C15.2907 2.53654 15.3827 2.40783 15.507 2.3161C15.6312 2.22437 15.7813 2.17432 15.9358 2.17311C16.0884 2.17082 16.2377 2.21778 16.3615 2.30703C16.4853 2.39628 16.5771 2.52306 16.6232 2.66857L17.906 6.51923H21.7306V7.96794H17.3845C17.2324 7.96797 17.0842 7.92014 16.9608 7.83121C16.8374 7.74228 16.7451 7.61678 16.6971 7.47248L15.9633 5.27045L13.7308 12.527C13.6853 12.6751 13.5935 12.8047 13.4688 12.8967C13.3442 12.9888 13.1933 13.0384 13.0384 13.0384Z" fill="#FBFFF1"/>
</svg>
