<svg width="25" height="25" viewBox="0 0 25 25" fill="none" xmlns="http://www.w3.org/2000/svg">
<path d="M17.9688 8.59375V18.75C17.9688 19.1644 17.8041 19.5618 17.5111 19.8549C17.2181 20.1479 16.8207 20.3125 16.4062 20.3125H8.59375C8.17935 20.3125 7.78192 20.1479 7.4889 19.8549C7.19587 19.5618 7.03125 19.1644 7.03125 18.75V8.59375C7.03125 8.17935 7.19587 7.78192 7.4889 7.4889C7.78192 7.19587 8.17935 7.03125 8.59375 7.03125H16.4062C16.8207 7.03125 17.2181 7.19587 17.5111 7.4889C17.8041 7.78192 17.9688 8.17935 17.9688 8.59375ZM14.8438 8.59375V10.9375H16.4062V8.59375H14.8438ZM13.2812 10.9375V8.59375H11.7188V10.9375H13.2812ZM16.4062 12.5H8.59375V14.8438H14.0625C14.2697 14.8438 14.4684 14.9261 14.6149 15.0726C14.7614 15.2191 14.8438 15.4178 14.8438 15.625V18.75H16.4062V12.5ZM11.7188 16.4062V18.75H13.2812V16.4062H11.7188ZM10.1562 18.75V16.4062H8.59375V18.75H10.1562ZM8.59375 10.9375H10.1562V8.59375H8.59375V10.9375Z" fill="#FBFFF1"/>
<path d="M3.90625 6.61563V21.875C3.90625 22.2894 4.07087 22.6868 4.3639 22.9799C4.65692 23.2729 5.05435 23.4375 5.46875 23.4375H19.5312C19.9457 23.4375 20.3431 23.2729 20.6361 22.9799C20.9291 22.6868 21.0938 22.2894 21.0938 21.875V3.125C21.0938 2.7106 20.9291 2.31317 20.6361 2.02015C20.3431 1.72712 19.9457 1.5625 19.5312 1.5625H9.65781C9.29234 1.56266 8.93849 1.69094 8.65781 1.925L4.46875 5.41562C4.29278 5.5622 4.15117 5.74566 4.05397 5.95303C3.95677 6.1604 3.90634 6.3866 3.90625 6.61563ZM19.5312 21.875H5.46875V6.61563L9.65781 3.125H19.5312V21.875Z" fill="#FBFFF1"/>
</svg>
