<svg width="34" height="34" viewBox="0 0 34 34" fill="none" xmlns="http://www.w3.org/2000/svg">
<path d="M14.9997 23.34H24.9997C25.4417 23.34 25.8656 23.5156 26.1782 23.8281C26.4907 24.1407 26.6663 24.5646 26.6663 25.0066C26.6663 25.4487 26.4907 25.8726 26.1782 26.1851C25.8656 26.4977 25.4417 26.6733 24.9997 26.6733H14.9997C14.5576 26.6733 14.1337 26.4977 13.8212 26.1851C13.5086 25.8726 13.333 25.4487 13.333 25.0066C13.333 24.5646 13.5086 24.1407 13.8212 23.8281C14.1337 23.5156 14.5576 23.34 14.9997 23.34ZM21.6663 13.34H18.333C17.891 13.34 17.467 13.1644 17.1545 12.8518C16.8419 12.5392 16.6663 12.1153 16.6663 11.6733C16.6663 11.2313 16.8419 10.8073 17.1545 10.4948C17.467 10.1822 17.891 10.0066 18.333 10.0066H21.6663C22.1084 10.0066 22.5323 10.1822 22.8448 10.4948C23.1574 10.8073 23.333 11.2313 23.333 11.6733C23.333 12.1153 23.1574 12.5392 22.8448 12.8518C22.5323 13.1644 22.1084 13.34 21.6663 13.34ZM1.66633 16.6733H6.66633V1.67329C6.66516 1.37961 6.74162 1.09083 6.88796 0.836201C7.0343 0.581571 7.24532 0.370132 7.49966 0.223291C7.75303 0.0770106 8.04044 0 8.333 0C8.62556 0 8.91297 0.0770106 9.16633 0.223291L14.1663 3.08996L19.1663 0.223291C19.4197 0.0770106 19.7071 0 19.9997 0C20.2922 0 20.5796 0.0770106 20.833 0.223291L25.833 3.08996L30.833 0.223291C31.0864 0.0770106 31.3738 0 31.6663 0C31.9589 0 32.2463 0.0770106 32.4997 0.223291C32.754 0.370132 32.965 0.581571 33.1114 0.836201C33.2577 1.09083 33.3342 1.37961 33.333 1.67329V28.34C33.333 29.666 32.8062 30.9378 31.8685 31.8755C30.9308 32.8132 29.6591 33.34 28.333 33.34H4.99966C3.67358 33.34 2.40181 32.8132 1.46413 31.8755C0.526447 30.9378 -0.000335693 29.666 -0.000335693 28.34V18.34C-0.000335693 17.8979 0.175259 17.474 0.48782 17.1614C0.800381 16.8489 1.2243 16.6733 1.66633 16.6733ZM28.333 30.0066C28.775 30.0066 29.1989 29.831 29.5115 29.5185C29.8241 29.2059 29.9997 28.782 29.9997 28.34V4.55662L26.6663 6.45662C26.4091 6.59098 26.1232 6.66114 25.833 6.66114C25.5428 6.66114 25.2569 6.59098 24.9997 6.45662L19.9997 3.58996L14.9997 6.45662C14.7424 6.59098 14.4565 6.66114 14.1663 6.66114C13.8761 6.66114 13.5902 6.59098 13.333 6.45662L9.99966 4.55662V28.34C9.99516 28.9085 9.8937 29.4722 9.69966 30.0066H28.333ZM3.333 28.34C3.333 28.782 3.50859 29.2059 3.82115 29.5185C4.13371 29.831 4.55764 30.0066 4.99966 30.0066C5.44169 30.0066 5.86562 29.831 6.17818 29.5185C6.49074 29.2059 6.66633 28.782 6.66633 28.34V20.0066H3.333V28.34ZM14.9997 16.6733H24.9997C25.4417 16.6733 25.8656 16.8489 26.1782 17.1614C26.4907 17.474 26.6663 17.8979 26.6663 18.34C26.6663 18.782 26.4907 19.2059 26.1782 19.5185C25.8656 19.831 25.4417 20.0066 24.9997 20.0066H14.9997C14.5576 20.0066 14.1337 19.831 13.8212 19.5185C13.5086 19.2059 13.333 18.782 13.333 18.34C13.333 17.8979 13.5086 17.474 13.8212 17.1614C14.1337 16.8489 14.5576 16.6733 14.9997 16.6733Z" fill="#113A58"/>
</svg>
