<svg width="25" height="35" viewBox="0 0 25 35" fill="none" xmlns="http://www.w3.org/2000/svg">
<path d="M20.8333 0H4.16667C3.0616 0 2.00179 0.368749 1.22039 1.02513C0.438987 1.6815 0 2.57174 0 3.5V31.5C0 32.4283 0.438987 33.3185 1.22039 33.9749C2.00179 34.6312 3.0616 35 4.16667 35H20.8333C21.9384 35 22.9982 34.6312 23.7796 33.9749C24.561 33.3185 25 32.4283 25 31.5V3.5C25 2.57174 24.561 1.6815 23.7796 1.02513C22.9982 0.368749 21.9384 0 20.8333 0ZM14.5833 33.25H10.4167V31.5H14.5833V33.25ZM20.8333 29.75H4.16667V5.25H20.8333V29.75Z" fill="#113A58"/>
</svg>
