<svg width="34" height="32" viewBox="0 0 34 32" fill="none" xmlns="http://www.w3.org/2000/svg">
<path d="M9.83333 18.0574L9.98333 17.9074C10.4333 17.4574 10.5167 16.724 10.1167 16.224C8.93333 14.7074 8.33333 12.9074 8.33333 11.224C8.33333 9.42404 8.91667 7.62404 10.0667 6.20738C10.4833 5.70738 10.4167 4.95738 9.95 4.50738L9.83333 4.39071C9.26667 3.82404 8.33333 3.89071 7.83333 4.52404C6.31667 6.49071 5.5 8.85738 5.5 11.224C5.5 13.5907 6.31667 15.9574 7.83333 17.924C8.33333 18.5574 9.26667 18.624 9.83333 18.0574ZM27.5167 0.374042L27.3833 0.507376C26.8833 1.00738 26.9 1.77404 27.3333 2.30738C29.4333 4.85738 30.5 8.10738 30.5 11.224C30.5 14.3407 29.45 17.574 27.3333 20.1407C26.8667 20.6907 26.95 21.524 27.4667 22.0407C28.05 22.624 29.0167 22.5574 29.5333 21.924C32.15 18.7907 33.3333 15.074 33.3333 11.224C33.3333 7.35738 32.0167 3.64071 29.4833 0.507376C28.9833 -0.109291 28.0667 -0.175958 27.5167 0.374042Z" fill="#113A58"/>
<path d="M5.95 0.507376L5.81667 0.374042C5.26667 -0.175958 4.35 -0.109291 3.85 0.507376C1.31667 3.64071 0 7.35738 0 11.224C0 15.0907 1.31667 18.8074 3.85 21.9407C4.35 22.5574 5.26667 22.6407 5.81667 22.074L5.95 21.9407C6.45 21.4407 6.43333 20.674 6 20.1407C3.88333 17.574 2.83333 14.3407 2.83333 11.224C2.83333 8.10738 3.88333 4.87404 6 2.30738C6.43333 1.77404 6.45 1.00738 5.95 0.507376ZM23.45 18.0074C24.05 18.6074 25.0333 18.5407 25.55 17.8574C27.05 15.8907 27.8333 13.5574 27.8333 11.224C27.7 8.87404 26.9833 6.50738 25.5 4.54071C25.3864 4.38824 25.2414 4.26195 25.0748 4.17035C24.9081 4.07875 24.7238 4.02399 24.5342 4.00977C24.3446 3.99555 24.1541 4.0222 23.9757 4.08792C23.7973 4.15364 23.6351 4.2569 23.5 4.39071L23.3667 4.52404C22.9167 4.97404 22.8333 5.70738 23.2333 6.20738C24.4 7.74071 25 9.54071 25 11.224C25 13.0074 24.4333 14.774 23.3167 16.1907C22.8833 16.724 22.95 17.5074 23.45 18.0074ZM20.8333 11.224C20.8333 8.55738 18.3167 6.47404 15.5333 7.20738C14.2 7.55738 13.1 8.62404 12.7 9.95738C12.1667 11.724 12.8 13.3574 13.9667 14.3574L9.03333 29.1407C8.68333 30.174 9.45 31.224 10.5333 31.224C11.2167 31.224 11.8167 30.7907 12.0333 30.1407L12.7833 27.8907H20.5667L21.3167 30.1407C21.3782 30.3427 21.4796 30.5303 21.6149 30.6924C21.7501 30.8546 21.9164 30.988 22.104 31.0849C22.2916 31.1818 22.4968 31.2401 22.7073 31.2564C22.9178 31.2727 23.1294 31.2467 23.3298 31.18C23.5301 31.1132 23.715 31.007 23.8736 30.8676C24.0322 30.7283 24.1613 30.5585 24.2533 30.3685C24.3453 30.1784 24.3983 29.9719 24.4092 29.761C24.42 29.5501 24.3886 29.3392 24.3167 29.1407L19.3833 14.3574C20.2667 13.5907 20.8333 12.4907 20.8333 11.224ZM13.8833 24.5574L16.6667 16.224L19.45 24.5574H13.8833Z" fill="#113A58"/>
</svg>
