<svg width="72" height="68" viewBox="0 0 72 68" fill="none" xmlns="http://www.w3.org/2000/svg">
<path d="M58.5785 25.1429V65M58.5785 25.1429C57.7171 25.1429 57.0675 24.0844 55.7718 21.9587L53.1805 17.7161C49.4532 11.6136 47.5879 8.55786 48.3104 6.04686C48.3868 5.79295 48.4771 5.54643 48.5813 5.30729C49.6269 3 52.6108 3 58.5785 3C64.5463 3 67.5302 3 68.5757 5.30729C68.6799 5.54643 68.7703 5.79295 68.8467 6.04686C69.5692 8.55786 67.7038 11.6136 63.9766 17.7161L61.3853 21.9587C60.0896 24.08 59.4435 25.1429 58.5785 25.1429ZM44.6839 42.8571V65M30.7893 29.5714V65M16.8946 25.1429V65M3 11.8571V65" stroke="#113A58" stroke-width="6" stroke-linecap="round"/>
</svg>
