<svg width="23" height="23" viewBox="0 0 23 23" fill="none" xmlns="http://www.w3.org/2000/svg">
<path d="M20.3644 11.5H8.52421M4.34492 11.5H2.63525M4.34492 11.5C4.34492 10.9459 4.56503 10.4145 4.95682 10.0227C5.34862 9.63092 5.88001 9.41081 6.43409 9.41081C6.98817 9.41081 7.51956 9.63092 7.91135 10.0227C8.30315 10.4145 8.52325 10.9459 8.52325 11.5C8.52325 12.0541 8.30315 12.5854 7.91135 12.9772C7.51956 13.369 6.98817 13.5891 6.43409 13.5891C5.88001 13.5891 5.34862 13.369 4.95682 12.9772C4.56503 12.5854 4.34492 12.0541 4.34492 11.5ZM20.3644 17.8317H14.8559M14.8559 17.8317C14.8559 18.3859 14.6353 18.9179 14.2434 19.3098C13.8515 19.7016 13.32 19.9218 12.7658 19.9218C12.2117 19.9218 11.6803 19.7007 11.2885 19.3089C10.8967 18.9172 10.6766 18.3858 10.6766 17.8317M14.8559 17.8317C14.8559 17.2775 14.6353 16.7464 14.2434 16.3546C13.8515 15.9627 13.32 15.7425 12.7658 15.7425C12.2117 15.7425 11.6803 15.9626 11.2885 16.3544C10.8967 16.7462 10.6766 17.2776 10.6766 17.8317M10.6766 17.8317H2.63525M20.3644 5.16827H17.3888M13.2095 5.16827H2.63525M13.2095 5.16827C13.2095 4.61419 13.4296 4.0828 13.8214 3.691C14.2132 3.29921 14.7446 3.0791 15.2987 3.0791C15.573 3.0791 15.8447 3.13314 16.0982 3.23813C16.3516 3.34312 16.5819 3.49701 16.7759 3.691C16.9699 3.885 17.1238 4.11531 17.2288 4.36878C17.3338 4.62225 17.3878 4.89391 17.3878 5.16827C17.3878 5.44262 17.3338 5.71429 17.2288 5.96776C17.1238 6.22123 16.9699 6.45153 16.7759 6.64553C16.5819 6.83953 16.3516 6.99342 16.0982 7.09841C15.8447 7.2034 15.573 7.25743 15.2987 7.25743C14.7446 7.25743 14.2132 7.03733 13.8214 6.64553C13.4296 6.25374 13.2095 5.72235 13.2095 5.16827Z" stroke="white" stroke-width="1.5625" stroke-miterlimit="10" stroke-linecap="round"/>
</svg>
