<svg width="25" height="25" viewBox="0 0 25 25" fill="none" xmlns="http://www.w3.org/2000/svg">
<path d="M10.6949 18.6473C12.373 18.6451 14.0084 18.1181 15.3721 17.1402L20.3315 22.1C20.4429 22.2107 20.5752 22.2982 20.7206 22.3574C20.8661 22.4167 21.0218 22.4465 21.1788 22.4451C21.8592 22.4451 22.3507 21.9219 22.3507 21.2523C22.3507 20.9384 22.2463 20.6456 22.0159 20.4156L17.0878 15.4768C18.1235 14.1165 18.7409 12.4322 18.7409 10.6009C18.7409 6.17502 15.1208 2.55493 10.6949 2.55493C6.25875 2.55493 2.64893 6.17502 2.64893 10.6009C2.64893 15.0268 6.25875 18.6473 10.6949 18.6473ZM10.6949 16.9103C7.23152 16.9103 4.38553 14.054 4.38553 10.6009C4.38553 7.14779 7.23196 4.29154 10.6949 4.29154C14.1476 4.29154 17.0043 7.14824 17.0043 10.6009C17.0043 14.054 14.1476 16.9103 10.6949 16.9103Z" fill="#FBFFF1"/>
</svg>
